HIERARCHY
ROOT Hips
{
	OFFSET -3.958830 18.904000 13.208200
	CHANNELS 6 Xposition Yposition Zposition Zrotation Yrotation Xrotation 
	JOINT LHipJoint
	{
		OFFSET 0.000000 0.000000 0.000000
		CHANNELS 3 Zrotation Yrotation Xrotation
		JOINT LeftUpLeg
		{
			OFFSET 1.800000 -1.400000 0.085000
			CHANNELS 3 Zrotation Yrotation Xrotation
			JOINT LeftLeg
			{
				OFFSET 2.215000 -6.000000 0.000000
				CHANNELS 3 Zrotation Yrotation Xrotation
				JOINT LeftFoot
				{
					OFFSET 2.500000 -6.900000 0.000000
					CHANNELS 3 Zrotation Yrotation Xrotation
					JOINT LeftToeBase
					{
						OFFSET 0.200000 -0.500000 1.950000
						CHANNELS 3 Zrotation Yrotation Xrotation
						End Site
						{
							OFFSET 0.000000 0.000000 0.000000
						}
					}
				}
			}
		}
	}
	JOINT RHipJoint
	{
		OFFSET 0.000000 0.000000 0.000000
		CHANNELS 3 Zrotation Yrotation Xrotation
		JOINT RightUpLeg
		{
			OFFSET -1.800000 -1.400000 0.085000
			CHANNELS 3 Zrotation Yrotation Xrotation
			JOINT RightLeg
			{
				OFFSET -2.215000 -6.000000 0.000000
				CHANNELS 3 Zrotation Yrotation Xrotation
				JOINT RightFoot
				{
					OFFSET -2.500000 -6.900000 0.000000
					CHANNELS 3 Zrotation Yrotation Xrotation
					JOINT RightToeBase
					{
						OFFSET -0.200000 -0.500000 1.950000
						CHANNELS 3 Zrotation Yrotation Xrotation
						End Site
						{
							OFFSET 0.000000 0.000000 0.000000
						}
					}
				}
			}
		}
	}
	JOINT LowerBack
	{
		OFFSET 0.000000 0.000000 0.000000
		CHANNELS 3 Zrotation Yrotation Xrotation
		JOINT Spine
		{
			OFFSET -0.087000 1.940000 -0.288900
			CHANNELS 3 Zrotation Yrotation Xrotation
			JOINT Spine1
			{
				OFFSET 0.000000 1.950000 0.060000
				CHANNELS 3 Zrotation Yrotation Xrotation
				JOINT Neck
				{
					OFFSET 0.000000 0.000000 0.000000
					CHANNELS 3 Zrotation Yrotation Xrotation
					JOINT Neck1
					{
						OFFSET 0.000000 1.600000 0.340000
						CHANNELS 3 Zrotation Yrotation Xrotation
						JOINT Head
						{
							OFFSET 0.000000 1.667000 -0.240000
							CHANNELS 3 Zrotation Yrotation Xrotation
							End Site
							{
								OFFSET 0.000000 0.000000 0.000000
							}
						}
					}
				}
				JOINT LeftShoulder
				{
					OFFSET 0.000000 0.000000 0.000000
					CHANNELS 3 Zrotation Yrotation Xrotation
					JOINT LeftArm
					{
						OFFSET 2.700000 1.550000 -0.730000
						CHANNELS 3 Zrotation Yrotation Xrotation
						JOINT LeftForeArm
						{
							OFFSET 5.450000 0.000000 0.000000
							CHANNELS 3 Zrotation Yrotation Xrotation
							JOINT LeftHand
							{
								OFFSET 3.450000 0.000000 0.000000
								CHANNELS 3 Zrotation Yrotation Xrotation
								JOINT LeftHandIndex1
								{
									OFFSET 0.750000 0.000000 0.000000
									CHANNELS 3 Zrotation Yrotation Xrotation
									End Site
									{
										OFFSET 0.000000 0.000000 0.000000
									}
								}
							}
						}
					}
				}
				JOINT RightShoulder
				{
					OFFSET 0.000000 0.000000 0.000000
					CHANNELS 3 Zrotation Yrotation Xrotation
					JOINT RightArm
					{
						OFFSET -2.700000 1.550000 -0.730000
						CHANNELS 3 Zrotation Yrotation Xrotation
						JOINT RightForeArm
						{
							OFFSET -5.450000 0.000000 0.000000
							CHANNELS 3 Zrotation Yrotation Xrotation
							JOINT RightHand
							{
								OFFSET -3.450000 0.000000 0.000000
								CHANNELS 3 Zrotation Yrotation Xrotation
								JOINT RightHandIndex1
								{
									OFFSET -0.750000 0.000000 0.000000
									CHANNELS 3 Zrotation Yrotation Xrotation
									End Site
									{
										OFFSET 0.000000 0.000000 0.000000
									}
								}
							}
						}
					}
				}
			}
		}
	}
}
MOTION
Frames: 9
Frame Time: 0.016667
-15.380420 16.130440 7.023310 -2.653833 -29.508139 -5.378403 -15.312692 11.361917 5.247959 11.967713 -2.143191 -41.763125 -1.249369 1.918136 -10.576886 -0.125469 2.538398 3.427269 0.276870 0.276930 0.215430 18.224204 -10.671947 2.123333 -8.815899 0.051282 -0.156049 12.991295 -10.174151 25.327813 -0.695252 -5.793069 2.299011 0.129750 -0.126840 -0.000820 -3.327689 -0.715967 -8.500434 6.454766 6.565473 15.919489 3.155858 7.993394 11.098461 1.213140 -2.258507 -14.944250 -11.611515 5.996672 76.730547 1.506980 -1.040720 6.568220 -12.059294 -19.603201 6.425029 -45.262027 -18.868332 2.415636 -43.510315 -33.683998 11.507107 -3.521987 3.254146 0.166100 -0.119880 0.173510 0.046850 10.807271 25.746670 8.786562 39.306284 19.646025 0.191901 43.383062 35.201824 10.785457 2.571277 -1.557532 0.060910 0.053650 -0.108340 -0.018180 
-15.429590 16.130370 7.082600 -2.829008 -29.174205 -5.551845 -15.331075 11.353256 5.280462 11.687685 -2.019318 -42.444853 -1.618459 1.981628 -10.400802 -0.110086 2.527419 3.428613 0.257580 0.247820 0.205520 18.204890 -10.664581 2.142973 -8.709903 0.001732 0.665476 13.057919 -10.242491 25.374574 -0.711784 -5.855403 2.285739 0.105690 -0.132180 -0.008560 -3.260213 -0.725912 -8.552596 6.407699 7.132130 16.563122 4.066557 8.544246 11.178555 1.071209 -2.329881 -15.567426 -11.756676 5.908426 77.496696 1.697450 -1.302600 7.646190 -12.182484 -19.809502 6.756620 -44.153587 -16.871767 1.559773 -40.867550 -30.593179 9.512463 -3.508689 3.222387 0.173040 -0.129330 0.172950 0.043170 11.341446 26.317667 9.430243 37.967388 17.844526 -0.141845 36.476547 29.658832 7.322335 2.584949 -1.458483 0.058870 0.044380 -0.105470 -0.018980 
-15.467630 16.143230 7.137050 -3.241164 -29.090777 -5.655814 -15.347443 11.376543 5.281591 11.675663 -1.825698 -42.605258 -1.889272 2.046713 -10.186895 -0.099615 2.539382 3.420230 0.247500 0.232760 0.207880 18.185034 -10.648778 2.168265 -8.549848 -0.067834 1.487082 13.187326 -10.348535 25.455896 -0.736654 -5.928748 2.264996 0.091210 -0.140650 -0.009420 -3.192538 -0.785644 -8.591973 6.338152 7.338573 17.184349 4.566043 8.756155 11.418012 1.081221 -2.161607 -16.078750 -11.229958 5.606551 78.040402 1.588910 -1.156120 8.215440 -12.327651 -20.371874 6.975365 -42.535682 -15.857539 1.385322 -38.653110 -26.563629 7.570528 -3.513131 3.183241 0.178440 -0.133420 0.178140 0.037680 11.550803 26.899908 9.999866 36.651279 16.835708 0.113951 30.149870 24.751640 4.907876 2.605962 -1.356753 0.059600 0.036210 -0.105310 -0.023070 
-15.495330 16.159420 7.205300 -3.709490 -28.630311 -5.722931 -15.343528 11.428306 5.208232 10.962074 -1.877881 -42.284517 -1.959627 2.036603 -10.071246 -0.099489 2.482362 3.444175 0.225880 0.205610 0.200650 18.180234 -10.659061 2.213881 -8.389812 -0.219948 2.460352 13.393391 -10.440680 25.196549 -0.754031 -5.998717 2.250767 0.070290 -0.138650 -0.009090 -3.176076 -0.820860 -8.574799 6.526826 7.370686 17.339035 5.048663 8.696079 12.103059 1.073480 -1.899697 -16.568719 -10.436173 5.192536 78.384495 1.444240 -0.938450 9.069590 -11.491855 -20.749108 7.237220 -40.963222 -15.328644 1.665871 -37.373610 -22.699325 6.085505 -3.528720 3.153000 0.174510 -0.127190 0.173000 0.029920 10.803257 27.013111 10.603645 35.494407 15.837643 0.356688 23.694495 21.797497 3.413393 2.622968 -1.266874 0.058640 0.026190 -0.098090 -0.025410 
-15.529150 16.170960 7.262350 -3.797954 -28.070238 -5.647545 -15.349950 11.495681 5.135974 10.191031 -2.004161 -42.167986 -2.552513 2.071266 -9.319375 -0.097911 2.404756 3.477892 0.203260 0.179980 0.181340 18.164089 -10.660116 2.257471 -8.333743 -0.276862 3.041441 13.673644 -10.480599 24.808579 -0.757881 -6.028562 2.252825 0.050120 -0.128330 -0.012590 -3.122646 -0.890034 -8.551978 6.266171 7.553652 17.540478 5.564185 8.756812 12.711272 0.988412 -1.868643 -16.988573 -10.281626 5.160960 77.751966 1.676690 -0.905820 9.753070 -10.303727 -20.675490 7.545015 -39.398792 -14.350219 1.620939 -36.519666 -20.471196 5.233956 -3.528430 3.138358 0.168240 -0.122760 0.164290 0.031960 9.870753 26.908862 11.108792 33.884989 14.904382 0.639779 18.883029 18.956883 2.426982 2.650838 -1.199442 0.056120 0.020850 -0.093490 -0.020310 
-15.563090 16.199050 7.332890 -4.449164 -27.708739 -5.497973 -15.334532 11.622079 5.025185 9.468925 -1.974160 -41.347160 -2.667049 2.089654 -8.901644 -0.094078 2.336523 3.507397 0.194350 0.168320 0.177120 18.160973 -10.672869 2.318406 -7.803386 -0.398288 3.685749 13.589649 -10.434362 24.731739 -0.769363 -6.045192 2.255802 0.035210 -0.133390 -0.012070 -3.112577 -1.003508 -8.529838 6.709744 7.403311 17.922832 5.987105 8.586504 13.196881 0.978771 -2.235374 -17.220392 -11.293268 5.338388 76.372739 1.143650 -1.268880 9.614500 -9.844672 -20.072118 7.691636 -38.102223 -13.135421 1.618110 -34.344572 -17.637563 4.069682 -3.527864 3.112762 0.161990 -0.127290 0.163510 0.029480 9.482919 26.545117 11.455083 31.861341 13.976580 0.725168 14.069281 16.405839 1.659775 2.685433 -1.144344 0.064460 0.013720 -0.093310 -0.015170 
-15.583430 16.220300 7.404480 -5.002079 -27.209618 -5.391720 -15.310842 11.762716 4.903886 8.651387 -2.010835 -40.317340 -2.924625 2.105336 -8.337336 -0.097041 2.270653 3.542132 0.168230 0.131810 0.163860 18.159320 -10.699282 2.383651 -7.469585 -0.446176 4.219778 13.619939 -10.466011 24.764253 -0.775015 -6.085875 2.249779 0.010600 -0.127060 -0.010570 -3.114711 -1.105775 -8.508850 7.386926 7.266793 18.437666 6.062593 8.564179 13.543157 1.169728 -2.363335 -17.425811 -11.700015 5.288045 74.951874 0.715780 -1.495430 9.919640 -9.682467 -19.362863 7.813656 -36.142964 -11.682660 1.466921 -32.615876 -15.778017 3.346850 -3.535552 3.088502 0.157560 -0.123200 0.153770 0.023790 8.931712 25.880120 11.803529 28.630708 12.563978 0.705849 11.597622 14.214816 1.282726 2.721305 -1.100308 0.061460 0.006680 -0.083230 -0.014170 
-15.615280 16.249190 7.492450 -5.479110 -26.138229 -5.232403 -15.310827 11.890576 4.762887 7.908342 -2.157997 -39.089213 -3.882059 2.162788 -7.213763 -0.105380 2.216109 3.568931 0.132530 0.085430 0.142300 18.141194 -10.703715 2.471581 -7.146811 -0.821639 5.511720 13.780189 -10.328986 23.380465 -0.773361 -6.065150 2.271151 -0.017500 -0.115300 -0.011640 -3.055219 -1.227730 -8.472406 7.254613 7.150150 18.325735 6.207316 8.325117 13.923228 1.361108 -1.953802 -17.759812 -10.566856 4.942055 74.175406 0.966710 -1.190410 10.837100 -9.496340 -19.144230 8.171489 -34.036041 -10.122313 1.299764 -30.634293 -14.185657 2.734539 -3.546547 3.064507 0.157060 -0.112450 0.138870 0.015920 8.398626 25.166779 12.198833 26.000617 10.996460 0.613262 9.171410 12.613107 1.011959 2.747996 -1.069883 0.049960 -0.005470 -0.068510 -0.019110 
-15.640430 16.290390 7.570300 -5.638742 -25.787581 -4.850240 -15.294667 11.999609 4.629127 7.021184 -2.336917 -37.726430 -4.324838 2.176198 -6.558893 -0.109707 2.155743 3.603110 0.093750 0.042040 0.116710 18.140526 -10.750766 2.519979 -6.947360 -1.029741 6.220012 13.192447 -9.989020 22.422436 -0.746354 -5.991234 2.310500 -0.044510 -0.095130 -0.011760 -3.052807 -1.255446 -8.400067 6.983661 6.994145 17.972494 5.732942 8.095097 14.247031 1.556969 -1.820156 -17.828846 -10.046872 5.050641 72.840216 0.974360 -0.619500 11.513780 -8.880829 -18.357607 8.478540 -31.874456 -8.224475 0.998832 -28.678752 -13.553879 2.427866 -3.560284 3.047042 0.145890 -0.094520 0.119450 0.007470 7.375962 24.111764 12.232700 23.897645 10.188454 0.532504 7.248573 12.290461 0.903206 2.760735 -1.051249 0.040720 -0.012760 -0.050250 -0.018930 
